<svg width="23" height="18" viewBox="0 0 23 18" fill="none" xmlns="http://www.w3.org/2000/svg">
<path d="M0 15.1484C0 16.3853 1.00409 17.3924 2.24394 17.3924H20.7561C21.993 17.3924 23 16.3854 23 15.1484H0Z" fill="#9A9AA9"/>
<path d="M21.0378 0.561119C21.0378 0.252573 20.7854 0.000195652 20.4769 0.000195652L2.52577 0C2.21449 0 1.96484 0.252393 1.96484 0.560923V14.0243H21.0379L21.0378 0.561119ZM16.7998 11.6008C16.898 11.8952 16.7409 12.2151 16.4465 12.3132C16.3874 12.3329 16.3258 12.3413 16.2696 12.3413C16.0341 12.3413 15.8153 12.1926 15.7366 11.9571C15.6582 11.7242 15.5347 11.5167 15.3833 11.3372C15.1532 11.0624 14.8531 10.8577 14.5111 10.7481C14.4831 10.7874 14.4549 10.8211 14.4269 10.8602C13.7621 11.7551 12.699 12.3413 11.5014 12.3413C10.3008 12.3413 9.2379 11.7551 8.57304 10.8604C8.54507 10.8211 8.51689 10.7875 8.48891 10.7483C8.14672 10.8577 7.8466 11.0653 7.6167 11.3374C7.46527 11.517 7.34181 11.7244 7.26335 11.9573C7.1847 12.1926 6.96596 12.3413 6.73313 12.3413C6.67424 12.3413 6.61261 12.3329 6.55352 12.3134C6.26181 12.2151 6.10196 11.8954 6.20018 11.601C6.49463 10.7174 7.16785 10.0444 8.00641 9.73013C7.90839 9.40182 7.85498 9.05395 7.85498 8.69493V7.87866C7.08644 7.54214 6.47503 6.89686 6.20016 6.06672C6.10194 5.77226 6.26179 5.45531 6.5535 5.35709C6.84796 5.25887 7.16491 5.41872 7.26314 5.71337C7.34159 5.9462 7.46505 6.15085 7.61648 6.3332C7.68946 6.41733 7.76792 6.49578 7.85498 6.56876V6.17061C7.85498 5.55079 8.357 5.04876 8.97683 5.04876H9.53775V4.20725C9.53775 3.93804 9.59097 3.68269 9.68918 3.44989L8.75787 2.67294C8.51937 2.47651 8.48572 2.12314 8.68489 1.88488C8.88407 1.64638 9.2374 1.61272 9.47591 1.8119L10.3988 2.58314C10.7132 2.36714 11.0918 2.24368 11.5013 2.24368C11.9081 2.24368 12.2867 2.36714 12.6009 2.58314L13.5265 1.8119C13.7621 1.61272 14.1156 1.64638 14.3146 1.88488C14.5137 2.12337 14.4801 2.4767 14.2445 2.67294L13.3105 3.44989C13.4085 3.68271 13.4647 3.93785 13.4647 4.20705V5.04856H14.0256C14.6427 5.04856 15.1474 5.55059 15.1474 6.17041V6.56876C15.2316 6.49578 15.31 6.41732 15.383 6.33319C15.5344 6.15085 15.6579 5.94619 15.7363 5.71337C15.8346 5.41891 16.1515 5.25906 16.446 5.35708C16.7404 5.4553 16.8975 5.77226 16.7993 6.06671C16.5244 6.89685 15.913 7.54212 15.1473 7.87866L15.1477 8.69492C15.1477 9.05395 15.0915 9.4018 14.9935 9.72992C15.832 10.0441 16.5051 10.7172 16.7997 11.6008L16.7998 11.6008Z" fill="#9A9AA9"/>
<path d="M8.97286 8.69615C8.97286 10.0874 10.1031 11.2204 11.4971 11.2204C12.8884 11.2204 14.0214 10.0872 14.0214 8.69615V6.17188H8.97266L8.97286 8.69615Z" fill="#9A9AA9"/>
<path d="M12.3393 4.2087C12.3393 3.74304 11.9607 3.36719 11.4978 3.36719C11.0321 3.36719 10.6562 3.74303 10.6562 4.2087V5.05021H12.3393V4.2087Z" fill="#9A9AA9"/>
</svg>
