<svg width="22" height="21" viewBox="0 0 22 21" fill="none" xmlns="http://www.w3.org/2000/svg">
<path d="M10.5084 9.45382C10.6661 9.29618 10.6885 9.02611 10.5309 8.84604L9.60798 7.72058C9.58553 7.67552 9.56292 7.63061 9.58553 7.58555C9.65305 7.42791 9.72056 7.27043 9.78808 7.11278C9.81053 7.06772 9.85559 7.02281 9.90066 7.02281L11.3412 6.86517C11.5664 6.84272 11.7463 6.64001 11.7463 6.41503V5.17698C11.7463 4.95183 11.5662 4.74927 11.3412 4.72684L9.90066 4.5692C9.85559 4.5692 9.81069 4.52414 9.78808 4.47923C9.74302 4.32159 9.6755 4.16411 9.58553 4.00646C9.56308 3.9614 9.56308 3.89388 9.60798 3.87143L10.5309 2.74597C10.6885 2.56588 10.6659 2.29583 10.5084 2.13819L9.63059 1.26033C9.47295 1.10269 9.20288 1.08024 9.0228 1.23788L7.89735 2.16079C7.85244 2.1834 7.80738 2.1834 7.76232 2.16079C7.60467 2.09328 7.4472 2.02576 7.28954 1.95825C7.24448 1.93579 7.19958 1.89073 7.19958 1.84567L7.04194 0.405084C7.01948 0.179928 6.81678 0 6.59179 0H5.35375C5.12859 0 4.92604 0.180093 4.90361 0.405084L4.74597 1.84567C4.74597 1.89073 4.7009 1.93564 4.656 1.95825C4.49836 2.00331 4.34088 2.07082 4.18323 2.16079C4.13816 2.18325 4.07065 2.18325 4.0482 2.13834L2.92274 1.21543C2.74265 1.05779 2.4726 1.08039 2.31495 1.23788L1.4371 2.11573C1.27946 2.27337 1.257 2.54345 1.41464 2.72352L2.33756 3.84898C2.36001 3.89404 2.38262 3.93895 2.36001 3.98401C2.2925 4.14165 2.22498 4.29913 2.15747 4.45678C2.13501 4.50184 2.08995 4.54675 2.04489 4.54675L0.604303 4.70439C0.379147 4.72684 0.199219 4.92954 0.199219 5.15453V6.39257C0.199219 6.61773 0.379312 6.82029 0.604303 6.84272L2.04489 7.00036C2.08995 7.00036 2.13486 7.04542 2.15747 7.09033C2.20253 7.24797 2.27004 7.40544 2.36001 7.5631C2.38246 7.60816 2.38246 7.67568 2.33756 7.69813L1.41464 8.82358C1.257 9.00368 1.27961 9.27373 1.4371 9.43137L2.31495 10.3092C2.47259 10.4669 2.74267 10.4893 2.92274 10.3317L4.0482 9.40877C4.09326 9.38631 4.13816 9.3637 4.18323 9.38631C4.34087 9.45383 4.49835 9.52134 4.656 9.58886C4.70106 9.61131 4.74597 9.65637 4.74597 9.70144L4.90361 11.142C4.92606 11.3672 5.12876 11.5471 5.35375 11.5471H6.59179C6.81695 11.5471 7.01951 11.367 7.04194 11.142L7.19958 9.70144C7.19958 9.65637 7.24464 9.61147 7.28954 9.58886C7.44718 9.5438 7.60466 9.47628 7.76232 9.38631C7.80738 9.36386 7.87489 9.36386 7.89735 9.40877L9.0228 10.3317C9.2029 10.4893 9.47295 10.4667 9.63059 10.3092L10.5084 9.45382ZM5.98411 7.87822C4.83619 7.87822 3.89084 6.95531 3.89084 5.78496C3.89084 4.61444 4.81376 3.69169 5.98411 3.69169C7.13204 3.69169 8.07738 4.6146 8.07738 5.78496C8.07738 6.95531 7.132 7.87822 5.98411 7.87822V7.87822Z" fill="#9A9AA9"/>
<path d="M20.7847 14.1565L19.3441 13.9989C19.2991 13.9989 19.2542 13.9538 19.2316 13.9089C19.1865 13.7513 19.119 13.5938 19.029 13.4361C19.0066 13.3911 19.0066 13.3235 19.0515 13.3011L19.9744 12.1756C20.132 11.9955 20.1094 11.7255 19.9519 11.5679L19.0741 10.69C18.9164 10.5324 18.6464 10.5099 18.4663 10.6675L17.3408 11.5905C17.2958 11.6129 17.2509 11.6355 17.2058 11.6129C17.0482 11.5454 16.8907 11.4779 16.733 11.4104C16.688 11.3879 16.6431 11.3428 16.6431 11.2978L16.463 9.83477C16.4405 9.60962 16.2378 9.42969 16.0128 9.42969H14.7748C14.5496 9.42969 14.3471 9.60978 14.3246 9.83477L14.167 11.2754C14.167 11.3204 14.1219 11.3653 14.077 11.3879C13.9194 11.433 13.7619 11.5005 13.6043 11.5905C13.5592 11.6129 13.4917 11.6129 13.4692 11.568L12.3438 10.6451C12.1637 10.4875 11.8936 10.5101 11.736 10.6676L10.8581 11.5454C10.7005 11.7031 10.678 11.9731 10.8357 12.1532L11.7586 13.2787C11.781 13.3237 11.8036 13.3686 11.781 13.4137C11.7135 13.5713 11.646 13.7288 11.5785 13.8865C11.556 13.9315 11.511 13.9764 11.4659 13.9764L10.0027 14.1565C9.77758 14.179 9.59766 14.3817 9.59766 14.6067V15.8447C9.59766 16.0699 9.77775 16.2724 10.0027 16.2949L11.4433 16.4525C11.4884 16.4525 11.5333 16.4976 11.5559 16.5425C11.601 16.7001 11.6685 16.8576 11.7584 17.0152C11.7809 17.0603 11.7809 17.1278 11.736 17.1503L10.8131 18.2757C10.6554 18.4558 10.6781 18.7259 10.8355 18.8835L11.7134 19.7614C11.871 19.919 12.1411 19.9415 12.3212 19.7838L13.4466 18.8609C13.4917 18.8385 13.5366 18.8158 13.5817 18.8385C13.7393 18.906 13.8968 18.9735 14.0544 19.041C14.0995 19.0635 14.1444 19.1085 14.1444 19.1536L14.302 20.5942C14.3245 20.8193 14.5272 20.9992 14.7522 20.9992H15.9902C16.2154 20.9992 16.4179 20.8192 16.4404 20.5942L16.598 19.1536C16.598 19.1085 16.6431 19.0636 16.688 19.041C16.8456 18.9959 17.0031 18.9284 17.1608 18.8385C17.2058 18.816 17.2733 18.816 17.2958 18.8609L18.4212 19.7838C18.6013 19.9415 18.8714 19.9189 19.029 19.7614L19.9069 18.8835C20.0645 18.7259 20.087 18.4558 19.9293 18.2757L19.0064 17.1503C18.984 17.1052 18.9614 17.0603 18.984 17.0152C19.0515 16.8576 19.119 16.7001 19.1865 16.5425C19.209 16.4974 19.254 16.4525 19.2991 16.4525L20.7397 16.2949C20.9648 16.2724 21.1448 16.0697 21.1448 15.8447V14.6067C21.1898 14.3592 21.0097 14.1791 20.7847 14.1565L20.7847 14.1565ZM15.3825 17.3079C14.2346 17.3079 13.2893 16.385 13.2893 15.2146C13.2893 14.0667 14.2122 13.1213 15.3825 13.1213C16.553 13.1213 17.4758 14.0442 17.4758 15.2146C17.476 16.385 16.553 17.3079 15.3825 17.3079V17.3079Z" fill="#9A9AA9"/>
<path d="M21.3086 5.94054C21.196 5.73799 20.971 5.60297 20.7459 5.60297H19.8905V3.14935C19.8905 1.91131 18.8776 0.898438 17.6396 0.898438H12.8226C12.4851 0.898438 12.2148 1.1685 12.2148 1.50622C12.2148 1.8438 12.4849 2.11401 12.8226 2.11401H17.6396C18.2023 2.11401 18.6751 2.58678 18.6751 3.14951V5.60297H17.8197C17.5945 5.60297 17.3696 5.738 17.257 5.94054C17.1444 6.14309 17.1444 6.39068 17.2794 6.59322L18.7424 8.8892C18.855 9.06929 19.0576 9.18186 19.2827 9.18186C19.5079 9.18186 19.7104 9.06929 19.823 8.8892L21.2635 6.59322C21.3986 6.39068 21.4212 6.14308 21.3086 5.94054H21.3086Z" fill="#9A9AA9"/>
<path d="M8.54518 18.9046H3.72822C3.1655 18.9046 2.69272 18.4319 2.69272 17.8691V15.4157H3.54811C3.77327 15.4157 3.99825 15.2807 4.11084 15.0781C4.22342 14.8756 4.22342 14.628 4.08839 14.4254L2.62537 12.152C2.5128 11.9719 2.2878 11.8594 2.08511 11.8594C1.85996 11.8594 1.6574 11.972 1.54486 12.152L0.104271 14.4254C-0.0307601 14.628 -0.0307599 14.8756 0.0818183 15.0781C0.194396 15.2807 0.419391 15.4157 0.644547 15.4157H1.49993V17.8691C1.49993 19.1072 2.5128 20.1201 3.75085 20.1201H8.5678C8.90537 20.1201 9.17559 19.85 9.17559 19.5123C9.15298 19.1748 8.88276 18.9046 8.54517 18.9046H8.54518Z" fill="#9A9AA9"/>
</svg>
