<svg width="21" height="21" viewBox="0 0 21 21" fill="none" xmlns="http://www.w3.org/2000/svg">
<path d="M2.625 1.65369V3.59631L3.15369 4.125H3.375V1.125H3.15369L2.625 1.65369Z" fill="#9A9AA9"/>
<path d="M4.125 11.625H4.5V14.625H4.125V11.625Z" fill="#9A9AA9"/>
<path d="M10.5 19.5C10.2018 19.5008 9.91624 19.6197 9.70547 19.8305C9.4947 20.0412 9.37584 20.3268 9.375 20.625V21H11.625V20.625C11.6242 20.3268 11.5053 20.0412 11.2945 19.8305C11.0838 19.6197 10.7982 19.5008 10.5 19.5H10.5Z" fill="#9A9AA9"/>
<path d="M0 2.40369V2.84631L0.528686 3.375H1.875V1.875H0.528686L0 2.40369Z" fill="#9A9AA9"/>
<path d="M5.25 0H5.625V21H5.25V0Z" fill="#9A9AA9"/>
<path d="M1.875 19.125V17.625H0.528686L0 18.1537V18.5963L0.528686 19.125H1.875Z" fill="#9A9AA9"/>
<path d="M2.625 12.1537V14.0963L3.15369 14.625H3.375V11.625H3.15369L2.625 12.1537Z" fill="#9A9AA9"/>
<path d="M2.625 17.4037V19.3463L3.15369 19.875H3.375V16.875H3.15369L2.625 17.4037Z" fill="#9A9AA9"/>
<path d="M4.125 16.875H4.5V19.875H4.125V16.875Z" fill="#9A9AA9"/>
<path d="M16.5 16.875H16.875V19.875H16.5V16.875Z" fill="#9A9AA9"/>
<path d="M4.125 6.375H4.5V9.375H4.125V6.375Z" fill="#9A9AA9"/>
<path d="M0.528686 7.125L0 7.65369V8.09631L0.528686 8.625H1.875V7.125H0.528686Z" fill="#9A9AA9"/>
<path d="M3.375 9.375V6.375H3.15369L2.625 6.90369V8.84631L3.15369 9.375H3.375Z" fill="#9A9AA9"/>
<path d="M4.125 1.125H4.5V4.125H4.125V1.125Z" fill="#9A9AA9"/>
<path d="M0 13.3463L0.528686 13.875H1.875V12.375H0.528686L0 12.9037V13.3463Z" fill="#9A9AA9"/>
<path d="M17.625 11.625V14.625H17.8463L18.375 14.0963V12.1537L17.8463 11.625H17.625Z" fill="#9A9AA9"/>
<path d="M16.5 11.625H16.875V14.625H16.5V11.625Z" fill="#9A9AA9"/>
<path d="M18.375 8.84631V6.90369L17.8463 6.375H17.625V9.375H17.8463L18.375 8.84631Z" fill="#9A9AA9"/>
<path d="M12.375 0.375C12.375 1.04481 12.0176 1.66389 11.4375 1.99873C10.8574 2.33372 10.1426 2.33372 9.5625 1.99873C8.98243 1.66391 8.625 1.04481 8.625 0.375V0H6.375V21H8.625V20.625C8.625 19.9552 8.98242 19.3361 9.5625 19.0013C10.1426 18.6663 10.8574 18.6663 11.4375 19.0013C12.0176 19.3361 12.375 19.9552 12.375 20.625V21H14.625V0H12.375V0.375Z" fill="#9A9AA9"/>
<path d="M16.5 6.375H16.875V9.375H16.5V6.375Z" fill="#9A9AA9"/>
<path d="M21 18.5963V18.1537L20.4713 17.625H19.125V19.125H20.4713L21 18.5963Z" fill="#9A9AA9"/>
<path d="M18.375 19.3463V17.4037L17.8463 16.875H17.625V19.875H17.8463L18.375 19.3463Z" fill="#9A9AA9"/>
<path d="M21 7.65369L20.4713 7.125H19.125V8.625H20.4713L21 8.09631V7.65369Z" fill="#9A9AA9"/>
<path d="M16.5 1.125H16.875V4.125H16.5V1.125Z" fill="#9A9AA9"/>
<path d="M15.75 16.5V0H15.375V21H15.75V16.5Z" fill="#9A9AA9"/>
<path d="M10.5 1.5C10.7982 1.49916 11.0838 1.3803 11.2945 1.16953C11.5053 0.958757 11.6242 0.673157 11.625 0.375V0H9.375V0.375C9.37584 0.673157 9.4947 0.958757 9.70547 1.16953C9.91624 1.3803 10.2018 1.49916 10.5 1.5H10.5Z" fill="#9A9AA9"/>
<path d="M20.4713 13.875L21 13.3463V12.9037L20.4713 12.375H19.125V13.875H20.4713Z" fill="#9A9AA9"/>
<path d="M18.375 3.59631V1.65369L17.8463 1.125H17.625V4.125H17.8463L18.375 3.59631Z" fill="#9A9AA9"/>
<path d="M19.125 1.875V3.375H20.4713L21 2.84631V2.40369L20.4713 1.875H19.125Z" fill="#9A9AA9"/>
</svg>
