<svg width="22" height="22" viewBox="0 0 22 22" fill="none" xmlns="http://www.w3.org/2000/svg">
<path d="M10.2368 21.2639C10.0337 21.7255 9.58168 22.0002 9.10785 22.0002C8.94194 22.0002 8.77313 21.9665 8.61166 21.8953C6.72802 21.0656 5.02968 19.9019 3.56427 18.4362C2.09837 16.9704 0.93463 15.2723 0.104907 13.3888C-0.16962 12.7657 0.113262 12.038 0.736322 11.7633C1.35936 11.4891 2.08746 11.7716 2.36163 12.3947C3.06756 13.9979 4.05875 15.4437 5.30774 16.6926C6.55656 17.9415 8.00251 18.9328 9.60569 19.6388C10.2289 19.9129 10.5115 20.6407 10.2369 21.2641L10.2368 21.2639ZM16.8617 17.6525C16.3333 17.7268 15.8064 17.7632 15.2838 17.7632C12.3657 17.763 9.58692 16.6216 7.48249 14.5175C5.00135 12.0365 3.85874 8.61802 4.34746 5.13814C4.44209 4.46377 3.97216 3.84039 3.29778 3.74558C2.62306 3.65094 2.00003 4.12088 1.90522 4.79526C1.61978 6.82775 1.80308 8.93139 2.43519 10.8789C3.09829 12.922 4.20987 14.7329 5.73836 16.2611C7.26685 17.7899 9.07803 18.9012 11.121 19.5647C12.4716 20.0032 13.897 20.2256 15.3221 20.2256C15.9518 20.2256 16.5816 20.1821 17.2045 20.0946C17.8789 20 18.3489 19.3764 18.2539 18.7021C18.1594 18.0277 17.5355 17.5576 16.8616 17.6524L16.8617 17.6525ZM19.6017 13.4383C18.2978 14.2694 16.8123 14.6745 15.3318 14.6745C13.257 14.6745 11.1926 13.878 9.65711 12.3429C7.02642 9.71221 6.56555 5.52981 8.56155 2.39827C8.92747 1.824 8.75883 1.06198 8.18438 0.6957C7.6101 0.32944 6.84773 0.498418 6.4818 1.07287C5.22225 3.04927 4.66207 5.42809 4.90455 7.77159C5.15077 10.1501 6.2192 12.3929 7.91291 14.0866C9.60662 15.7803 11.8496 16.8489 14.2279 17.095C14.5855 17.1318 14.9439 17.1502 15.3018 17.1502C17.288 17.1502 19.2521 16.5852 20.9267 15.5178C21.501 15.1518 21.6698 14.3895 21.3039 13.8152C20.9378 13.2411 20.176 13.0724 19.6015 13.4383L19.6017 13.4383ZM21.337 8.44283C20.7333 8.12773 19.9884 8.36184 19.6735 8.96565C19.4428 9.40779 19.1453 9.81257 18.7889 10.1688C17.86 11.0977 16.6251 11.6091 15.3115 11.6091H15.311C13.997 11.6091 12.7616 11.097 11.8322 10.1677C9.91409 8.24963 9.91357 5.12861 11.8312 3.21102C12.1875 2.85464 12.5923 2.55712 13.0346 2.32638C13.6384 2.01127 13.8723 1.26648 13.5574 0.662874C13.2423 0.0590903 12.4975 -0.174837 11.8939 0.140063C11.2292 0.486886 10.6214 0.933468 10.0877 1.46715C7.2084 4.34643 7.20875 9.03147 10.0887 11.9116C11.4838 13.3067 13.3383 14.0749 15.3107 14.0752H15.3114C17.2839 14.0752 19.1382 13.3072 20.5329 11.9126C21.0668 11.3787 21.5132 10.771 21.86 10.1062C22.1748 9.50256 21.9408 8.75773 21.3371 8.44297L21.337 8.44283ZM12.2628 3.64294C13.0765 2.82924 14.1586 2.38116 15.3094 2.38116C16.4605 2.38116 17.5429 2.82946 18.3569 3.64347C20.037 5.32387 20.0373 8.05748 18.3574 9.73762C17.5439 10.5513 16.4617 10.9994 15.3109 10.9994C14.1598 10.9994 13.0773 10.5511 12.2633 9.73709C10.5831 8.0567 10.5828 5.32264 12.2628 3.64294V3.64294ZM14.007 7.99305C14.3554 8.34141 14.8183 8.53306 15.3106 8.53306C15.8026 8.53306 16.2654 8.34141 16.6133 7.99358C17.3317 7.27521 17.3317 6.10566 16.6128 5.38712C16.2644 5.03876 15.8015 4.84711 15.3092 4.84711C14.8171 4.84711 14.3543 5.03876 14.0063 5.38659C13.2881 6.10496 13.2883 7.27433 14.007 7.99305H14.007Z" fill="#9A9AA9"/>
</svg>
