<svg width="18" height="19" viewBox="0 0 18 19" fill="none" xmlns="http://www.w3.org/2000/svg">
<path d="M16.9635 2.71492C11.2027 2.71492 9.39097 0.312898 9.3774 0.292542C9.31505 0.202659 9.23188 0.129184 9.135 0.0783805C9.03812 0.0275768 8.93039 0.000950196 8.821 0.000770174C8.71047 -0.00466612 8.60042 0.0187493 8.50168 0.0687152C8.40294 0.118681 8.3189 0.193478 8.25781 0.285756C8.25781 0.285756 6.43933 2.71492 0.678538 2.71492C0.498579 2.71492 0.32599 2.78641 0.198739 2.91366C0.0714886 3.04091 0 3.2135 0 3.39346V9.33746C0 15.6139 4.82441 17.4799 7.70141 18.6063L8.56315 18.9456C8.64437 18.9815 8.7322 19 8.821 19C8.9098 19 8.99762 18.9815 9.07884 18.9456L9.9338 18.6063C12.8176 17.4867 17.642 15.6072 17.642 9.33746V3.39346C17.642 3.2135 17.5705 3.04091 17.4433 2.91366C17.316 2.78641 17.1434 2.71492 16.9635 2.71492Z" fill="#9A9AA9"/>
<path d="M10.1778 8.82123H7.46369C7.28374 8.82123 7.11115 8.74974 6.9839 8.62249C6.85665 8.49524 6.78516 8.32265 6.78516 8.14269V6.78561C6.78516 6.24574 6.99962 5.72797 7.38137 5.34622C7.76313 4.96447 8.28089 4.75 8.82077 4.75C9.36065 4.75 9.87842 4.96447 10.2602 5.34622C10.6419 5.72797 10.8564 6.24574 10.8564 6.78561V8.14269C10.8564 8.32265 10.7849 8.49524 10.6576 8.62249C10.5304 8.74974 10.3578 8.82123 10.1778 8.82123ZM8.14223 7.46415H9.49931V6.78561C9.49931 6.60566 9.42782 6.43307 9.30057 6.30582C9.17332 6.17857 9.00073 6.10708 8.82077 6.10708C8.64081 6.10708 8.46822 6.17857 8.34097 6.30582C8.21372 6.43307 8.14223 6.60566 8.14223 6.78561V7.46415Z" fill="white"/>
<path d="M10.1795 7.46484H7.4653C6.34106 7.46484 5.42969 8.37622 5.42969 9.50046V12.2146C5.42969 13.3389 6.34106 14.2502 7.4653 14.2502H10.1795C11.3037 14.2502 12.2151 13.3389 12.2151 12.2146V9.50046C12.2151 8.37622 11.3037 7.46484 10.1795 7.46484Z" fill="white"/>
<path d="M8.82192 12.2142C8.55352 12.2142 8.29114 12.1346 8.06797 11.9854C7.8448 11.8363 7.67086 11.6244 7.56815 11.3764C7.46543 11.1284 7.43856 10.8556 7.49092 10.5923C7.54328 10.3291 7.67253 10.0873 7.86232 9.89748C8.05211 9.70769 8.29392 9.57844 8.55717 9.52608C8.82042 9.47371 9.09328 9.50059 9.34125 9.6033C9.58923 9.70602 9.80117 9.87996 9.95029 10.1031C10.0994 10.3263 10.179 10.5887 10.179 10.8571C10.179 11.217 10.036 11.5622 9.78152 11.8167C9.52702 12.0712 9.18184 12.2142 8.82192 12.2142V12.2142Z" fill="#9A9AA9"/>
</svg>
