<svg width="19" height="19" viewBox="0 0 19 19" fill="none" xmlns="http://www.w3.org/2000/svg">
<path fill-rule="evenodd" clip-rule="evenodd" d="M8.59556 0.000232679C6.68202 -0.000676164 4.96601 1.11506 4.13899 2.82545C1.79709 3.22942 0 5.23808 0 7.69073C0 10.4337 2.23282 12.6665 4.97578 12.6665H5.42823V13.7435L4.32112 14.298C4.16784 14.3745 4.07089 14.5305 4.07059 14.7018V15.4418C3.29324 15.6443 2.71295 16.3522 2.71295 17.1899C2.71295 18.184 3.52893 19 4.52303 19C5.51699 19 6.33343 18.184 6.33343 17.1899C6.33343 16.3522 5.75298 15.6444 4.97579 15.4418V14.9823L6.08289 14.4283C6.23618 14.3519 6.33312 14.1953 6.33342 14.0241V11.7612C6.32979 11.5114 6.52943 11.3059 6.7792 11.3022C7.03427 11.2984 7.24195 11.5062 7.23831 11.7612V12.6665H9.04641V15.4418C8.26968 15.6444 7.6906 16.3522 7.6906 17.1899C7.6906 18.184 8.5049 19 9.49885 19C10.493 19 11.3089 18.184 11.3089 17.1899C11.3089 16.3522 10.7288 15.6444 9.95176 15.4418V11.7612C9.94813 11.5114 10.1476 11.3059 10.3975 11.3022C10.6525 11.2984 10.8603 11.5062 10.8565 11.7612V12.6665H12.6666V14.0242C12.6669 14.1953 12.7638 14.3519 12.917 14.4283L14.0242 14.9824V15.4418C13.2469 15.6443 12.6666 16.3523 12.6666 17.1899C12.6666 18.184 13.4825 19 14.4765 19C15.4706 19 16.2848 18.184 16.2848 17.1899C16.2848 16.3524 15.706 15.6446 14.9294 15.4418V14.7019C14.9291 14.5305 14.8322 14.3745 14.6789 14.298L13.5718 13.7435V11.7612C13.5681 11.5114 13.7676 11.3059 14.0175 11.3023C14.2726 11.2985 14.4803 11.5063 14.4765 11.7612V12.6666H15.8323C17.5789 12.6666 19 11.2455 19 9.49888C19 7.88558 17.7699 6.60414 16.2084 6.40994C16.023 4.92674 14.8456 3.77376 13.3411 3.66333C12.7478 1.52911 10.8392 0.00108574 8.59564 0L8.59556 0.000232679Z" fill="#9A9AA9"/>
</svg>
